<svg width="24" height="24" viewBox="0 0 24 24" fill="none" xmlns="http://www.w3.org/2000/svg">
<path fill-rule="evenodd" clip-rule="evenodd" d="M9.60378 7.57279L9.9958 10.0272C10.1418 10.9417 10.8287 11.6584 11.7051 11.8109L14.0574 12.2199C14.2305 12.2496 14.3662 12.3912 14.3947 12.5719C14.4313 12.8044 14.2803 13.024 14.0574 13.0622L11.7051 13.4713C10.8287 13.6238 10.1419 14.3405 9.9958 15.255L9.60378 17.7094C9.57541 17.8902 9.43955 18.032 9.26623 18.0616C9.04332 18.0996 8.83302 17.942 8.79651 17.7094L8.40452 15.255C8.25841 14.3404 7.57151 13.6237 6.69495 13.4713L4.34278 13.0622C4.16963 13.0325 4.03391 12.8909 4.00547 12.7102C3.96886 12.4776 4.11988 12.2581 4.34278 12.2199L6.69495 11.8109C7.57154 11.6585 8.25844 10.9418 8.40452 10.0272L8.79651 7.57279C8.82491 7.39194 8.96076 7.25018 9.13406 7.22058C9.357 7.18251 9.5673 7.3402 9.60378 7.57279Z" fill="#8F8F8F"/>
<path fill-rule="evenodd" clip-rule="evenodd" d="M17.0356 4.08251L17.2779 5.59942C17.3681 6.16468 17.7926 6.60764 18.3343 6.70189L19.7881 6.95465C19.8952 6.973 19.979 7.06053 19.9966 7.17219C20.0192 7.31592 19.9259 7.45159 19.7881 7.4752L18.3343 7.72807C17.7927 7.8223 17.3682 8.26525 17.2779 8.8305L17.0356 10.3474C17.0181 10.4592 16.9341 10.5468 16.827 10.5651C16.6892 10.5886 16.5592 10.4911 16.5367 10.3474L16.2944 8.8305C16.2041 8.26522 15.7796 7.82225 15.2378 7.72807L13.7841 7.4752C13.6771 7.45686 13.5932 7.36935 13.5756 7.25769C13.553 7.11393 13.6463 6.97826 13.7841 6.95465L15.2378 6.70189C15.7796 6.60769 16.2041 6.16471 16.2944 5.59942L16.5367 4.08251C16.5542 3.97074 16.6382 3.88313 16.7453 3.86483C16.8831 3.84131 17.0131 3.93876 17.0356 4.08251Z" fill="#8F8F8F"/>
<path fill-rule="evenodd" clip-rule="evenodd" d="M16.1827 15.2066L16.3325 16.1446C16.3883 16.4942 16.6508 16.7681 16.9858 16.8264L17.8848 16.9827C17.951 16.994 18.0028 17.0482 18.0137 17.1172C18.0277 17.2061 17.97 17.29 17.8848 17.3046L16.9858 17.461C16.6508 17.5192 16.3883 17.7931 16.3325 18.1427L16.1827 19.0807C16.1718 19.1498 16.1199 19.204 16.0537 19.2153C15.9685 19.2299 15.8881 19.1696 15.8741 19.0807L15.7243 18.1427C15.6685 17.7931 15.406 17.5192 15.0709 17.461L14.172 17.3046C14.1058 17.2932 14.0539 17.2391 14.0431 17.1701C14.0291 17.0812 14.0868 16.9973 14.172 16.9827L15.0709 16.8264C15.406 16.7681 15.6685 16.4942 15.7243 16.1446L15.8741 15.2066C15.885 15.1375 15.9369 15.0833 16.0032 15.072C16.0884 15.0574 16.1687 15.1177 16.1827 15.2066Z" fill="#8F8F8F"/>
</svg>
